<?xml version="1.0" encoding="iso-8859-1"?>
<!-- Generator: Adobe Illustrator 18.0.0, SVG Export Plug-In . SVG Version: 6.00 Build 0)  -->
<!DOCTYPE svg PUBLIC "-//W3C//DTD SVG 1.1//EN" "http://www.w3.org/Graphics/SVG/1.1/DTD/svg11.dtd">
<svg xmlns="http://www.w3.org/2000/svg" xmlns:xlink="http://www.w3.org/1999/xlink" version="1.1" id="Capa_1" x="0px" y="0px" viewBox="0 0 297 297" style="enable-background:new 0 0 297 297;" xml:space="preserve" width="512px" height="512px">
<g>
	<path d="M265.643,77.872c10.408,1.945,11.918,1.537,14.419,0.86c0.673-0.182,1.39-0.375,2.215-0.566   c4.115-0.951,8.396-3.741,11.172-7.283c3.211-4.097,4.251-8.721,3.089-13.745c-1.161-5.023-4.125-8.722-8.81-10.993   c-4.049-1.963-9.119-2.591-13.234-1.639c-0.825,0.191-1.553,0.332-2.238,0.464c-2.545,0.491-4.081,0.787-12.579,7.104   c-4.949,3.679-13.305,7.663-23.252,10.694l3.63,15.7C250.323,76.825,259.581,76.737,265.643,77.872z" fill="#D80027"/>
	<path d="M225.074,81.869l-3.602-15.579c-4.765,0.796-9.669,1.299-14.568,1.415l4.46,19.288   C215.817,84.946,220.443,83.246,225.074,81.869z" fill="#D80027"/>
	<path d="M84.041,147.715l5.553-19.005c-4.885-0.395-9.751-1.178-14.464-2.244l-4.486,15.352   C75.19,143.458,79.712,145.417,84.041,147.715z" fill="#D80027"/>
	<path d="M60.403,122.097c-9.758-3.594-17.874-8.047-22.605-12.002c-8.125-6.792-9.641-7.176-12.154-7.811   c-0.675-0.17-1.394-0.353-2.207-0.591c-7.209-2.103-19.424,0.045-22.729,11.356c-1.446,4.949-0.672,9.625,2.301,13.897   c2.569,3.693,6.684,6.724,10.738,7.909c0.812,0.237,1.516,0.47,2.178,0.69c2.459,0.818,3.943,1.311,14.447-0.036   c1.685-0.216,3.61-0.327,5.723-0.327c5.555,0,12.43,0.769,19.789,2.381L60.403,122.097z" fill="#D80027"/>
	<path d="M43.651,93.31c9.373,7.834,39.016,29.523,69.918,18.573c22.008-7.799,44.694-9.236,69.762-2.828   c1.497-1.56,2.959-3.163,4.359-4.84c2.832-3.392,6.148-6.412,9.783-9.104l-6.613-28.599c-4.447-0.823-8.753-2.081-12.787-3.885   c-19.817-8.864-41.295-10.433-65.661-4.799C88.35,63.391,56.436,80.032,43.651,93.31z" fill="#D80027"/>
	<path d="M205.15,222.018c4.8-0.991,9.691-1.605,14.514-1.903v-15.992c-4.822-0.298-9.713-0.912-14.514-1.903V222.018z" fill="#D80027"/>
	<path d="M115.313,171.307c-22.467,0-53.33,7.468-70.351,16.388c-2.86,1.499-4.637,4.471-4.637,7.7v33.448   c0,3.229,1.777,6.201,4.637,7.7c17.02,8.92,47.883,16.388,70.351,16.388c25.01,0,45.582-6.369,62.892-19.47   c3.524-2.667,7.435-4.862,11.583-6.666v-29.353c-4.148-1.804-8.06-3.999-11.583-6.666   C160.893,177.675,140.321,171.307,115.313,171.307z" fill="#D80027"/>
	<path d="M276.23,194.844c-0.846,0-1.587-0.026-2.283-0.052c-2.592-0.098-4.153-0.153-13.858,4.087   c-5.651,2.469-14.69,4.467-25.064,5.181v16.117c10.374,0.713,19.413,2.712,25.064,5.182c9.703,4.24,11.26,4.18,13.858,4.087   c0.696-0.026,1.437-0.052,2.283-0.052c7.514,0,18.632-5.49,18.632-17.275C294.862,200.335,283.744,194.844,276.23,194.844z" fill="#D80027"/>
	<path d="M98.213,157.943c5.642-0.628,11.914-0.974,17.1-0.974c28.247,0,51.649,7.319,71.544,22.374   c15.497,11.728,41.14,12.022,56.955,9.257l5.906-20.211c0.906-3.1,0.034-6.451-2.291-8.692   c-13.835-13.335-41.365-29.16-62.93-35.462c-24.007-7.013-45.539-6.671-65.829,1.048c-4.13,1.571-8.5,2.582-12.987,3.15   L98.213,157.943z" fill="#D80027"/>
</g>
<g>
</g>
<g>
</g>
<g>
</g>
<g>
</g>
<g>
</g>
<g>
</g>
<g>
</g>
<g>
</g>
<g>
</g>
<g>
</g>
<g>
</g>
<g>
</g>
<g>
</g>
<g>
</g>
<g>
</g>
</svg>
